<mxfile host="app.diagrams.net" modified="2022-05-12T04:44:13.363Z" agent="5.0 (X11; Linux x86_64) AppleWebKit/537.36 (KHTML, like Gecko) Chrome/100.0.4896.127 Safari/537.36 OPR/86.0.4363.32" etag="gnme_OcHoYIB9qqv6hiC" version="17.4.1" type="github">
  <diagram id="C35GCgYAR9k-mV00ap4P" name="ページ1">
    <mxGraphModel dx="599" dy="511" grid="1" gridSize="10" guides="1" tooltips="1" connect="1" arrows="1" fold="1" page="1" pageScale="1" pageWidth="827" pageHeight="1169" math="0" shadow="0">
      <root>
        <mxCell id="0" />
        <mxCell id="1" parent="0" />
        <mxCell id="-6WsiaBZsXEjQQ2cWQRS-3" value="Ray.QueryModule" style="ellipse;whiteSpace=wrap;html=1;fillColor=none;verticalAlign=top;align=left;strokeColor=#006EAF;opacity=50;fontColor=#004080;strokeWidth=4;" vertex="1" parent="1">
          <mxGeometry x="40" y="120" width="320" height="240" as="geometry" />
        </mxCell>
        <mxCell id="-6WsiaBZsXEjQQ2cWQRS-4" value="Ray.MediaQuery" style="ellipse;whiteSpace=wrap;html=1;fillColor=none;verticalAlign=top;align=right;strokeColor=#2D7600;opacity=50;fontColor=#177517;strokeWidth=4;" vertex="1" parent="1">
          <mxGeometry x="80" y="120" width="320" height="240" as="geometry" />
        </mxCell>
        <mxCell id="-6WsiaBZsXEjQQ2cWQRS-5" value="Ray.AuraSqlModule" style="ellipse;whiteSpace=wrap;html=1;fillColor=#f8cecc;verticalAlign=top;strokeColor=#b85450;opacity=50;fontColor=#82345B;strokeWidth=4;" vertex="1" parent="1">
          <mxGeometry x="130" y="160" width="180" height="170" as="geometry" />
        </mxCell>
        <mxCell id="-6WsiaBZsXEjQQ2cWQRS-6" value="Aura.Sql" style="ellipse;whiteSpace=wrap;html=1;fillColor=#d80073;fontColor=#ffffff;strokeColor=#A50040;" vertex="1" parent="1">
          <mxGeometry x="177.5" y="190" width="85" height="50" as="geometry" />
        </mxCell>
        <mxCell id="-6WsiaBZsXEjQQ2cWQRS-7" value="Aura.SqlQuery" style="ellipse;whiteSpace=wrap;html=1;fillColor=#fa6800;fontColor=#FFFFFF;strokeColor=#C73500;" vertex="1" parent="1">
          <mxGeometry x="167.5" y="250" width="105" height="60" as="geometry" />
        </mxCell>
      </root>
    </mxGraphModel>
  </diagram>
</mxfile>
